<svg width="95" height="28" viewBox="0 0 95 28" fill="none" xmlns="http://www.w3.org/2000/svg">
<mask id="mask0_1828_46011" style="mask-type:alpha" maskUnits="userSpaceOnUse" x="82" y="7" width="13" height="15">
<path fill-rule="evenodd" clip-rule="evenodd" d="M82.2891 7.44141H94.9999V21.8756H82.2891V7.44141Z" fill="white"/>
</mask>
<g mask="url(#mask0_1828_46011)">
<path fill-rule="evenodd" clip-rule="evenodd" d="M94.4599 20.0801C94.2233 20.3302 93.9315 20.5686 93.573 20.7885C93.2122 21.0094 92.8102 21.1978 92.3674 21.3573C91.9223 21.5124 91.4596 21.639 90.9746 21.7368C90.4874 21.8287 90.0129 21.8756 89.5474 21.8756C88.5517 21.8756 87.6135 21.6868 86.7252 21.3095C85.8373 20.9292 85.0655 20.4158 84.4124 19.7632C83.7575 19.1138 83.2404 18.3449 82.8588 17.4638C82.4808 16.58 82.2891 15.6493 82.2891 14.6614C82.2891 13.6717 82.4808 12.7356 82.8588 11.8541C83.2404 10.9726 83.7575 10.2055 84.4124 9.55333C85.0655 8.90299 85.8373 8.3874 86.7252 8.00927C87.6135 7.6307 88.5517 7.44141 89.5474 7.44141C90.4113 7.44141 91.2348 7.55318 92.0179 7.77266C92.7998 7.9917 93.4778 8.34639 94.047 8.82817C94.5089 9.22929 94.7473 9.67907 94.7473 10.1829C94.7473 10.4971 94.6385 10.7936 94.4286 11.0654C94.0656 11.5062 93.6042 11.7257 93.0323 11.7257C92.6538 11.7257 92.2962 11.6346 91.9559 11.444C91.596 11.2344 91.2266 11.0713 90.8459 10.9559C90.4607 10.8419 90.0324 10.7828 89.5474 10.7828C88.9977 10.7828 88.5132 10.8883 88.0876 11.0974C87.6666 11.3101 87.309 11.5864 87.0112 11.9307C86.7148 12.2804 86.4882 12.6883 86.3291 13.1615C86.1745 13.633 86.0925 14.1332 86.0925 14.6614C86.0925 15.1838 86.1745 15.6822 86.3291 16.1577C86.4882 16.6291 86.7148 17.0375 87.0112 17.3858C87.309 17.7329 87.6666 18.0096 88.0876 18.2187C88.5132 18.4292 88.9977 18.5356 89.5474 18.5356C90.2236 18.5356 90.7784 18.4242 91.2099 18.2034C91.6463 17.9826 91.9966 17.777 92.2713 17.5878C92.6112 17.3376 93.0005 17.2128 93.4438 17.2128C93.9079 17.2128 94.2986 17.3917 94.6181 17.7459C94.8692 18.0641 95.0002 18.4076 95.0002 18.7884C95.0002 19.249 94.8184 19.6785 94.4599 20.0801Z" fill="white"/>
</g>
<path fill-rule="evenodd" clip-rule="evenodd" d="M76.3876 13.2509C76.2242 12.7773 75.9919 12.3588 75.6914 12.005C75.3876 11.646 75.0233 11.3641 74.5958 11.1556C74.165 10.9513 73.6669 10.8496 73.1078 10.8496C72.5491 10.8496 72.0538 10.9513 71.6262 11.1556C71.1946 11.3641 70.8284 11.646 70.5274 12.005C70.2241 12.3588 70.0006 12.7773 69.8483 13.2509C69.6959 13.7283 69.6211 14.2373 69.6211 14.7815C69.6211 15.3211 69.6959 15.8278 69.8483 16.3047C70.0006 16.7807 70.2241 17.1986 70.5274 17.5553C70.8284 17.911 71.1946 18.1938 71.6262 18.3977C72.0538 18.6057 72.5491 18.7093 73.1078 18.7093C73.6669 18.7093 74.165 18.6057 74.5958 18.3977C75.0233 18.1938 75.3876 17.911 75.6914 17.5553C75.9919 17.1986 76.2242 16.7807 76.3876 16.3047C76.5464 15.8278 76.6286 15.3211 76.6286 14.7815C76.6286 14.2373 76.5464 13.7283 76.3876 13.2509ZM79.9201 17.6706C79.5332 18.5785 79.0064 19.3707 78.3402 20.0399C77.6726 20.7114 76.8864 21.2408 75.9815 21.6341C75.077 22.0219 74.1209 22.2165 73.1079 22.2165C72.0982 22.2165 71.137 22.0219 70.2335 21.6341C69.3327 21.2408 68.5455 20.7114 67.8798 20.0399C67.2127 19.3707 66.6854 18.5785 66.2981 17.6706C65.9116 16.7623 65.7168 15.8011 65.7168 14.7831C65.7168 13.762 65.9116 12.7988 66.2981 11.8905C66.6854 10.9822 67.2127 10.1918 67.8798 9.5203C68.5455 8.84927 69.3327 8.31848 70.2335 7.92887C71.137 7.54018 72.0982 7.34375 73.1079 7.34375C74.1209 7.34375 75.077 7.54018 75.9815 7.92887C76.8864 8.31848 77.6726 8.84927 78.3402 9.5203C79.0064 10.1918 79.5332 10.9822 79.9201 11.8905C80.3111 12.7988 80.5032 13.762 80.5032 14.7831C80.5032 15.8011 80.3111 16.7623 79.9201 17.6706Z" fill="white"/>
<mask id="mask1_1828_46011" style="mask-type:alpha" maskUnits="userSpaceOnUse" x="49" y="0" width="15" height="22">
<path fill-rule="evenodd" clip-rule="evenodd" d="M49.4199 0H63.7712V21.8715H49.4199V0Z" fill="white"/>
</mask>
<g mask="url(#mask1_1828_46011)">
<path fill-rule="evenodd" clip-rule="evenodd" d="M58.0342 18.1301C57.6148 18.3327 57.1331 18.4343 56.5919 18.4343C56.0493 18.4343 55.5698 18.3327 55.154 18.1301C54.7351 17.9289 54.3806 17.6516 54.0862 17.3029C53.7937 16.9532 53.5745 16.5434 53.4267 16.0768C53.2829 15.6092 53.208 15.1111 53.208 14.5834C53.208 14.0498 53.2829 13.5522 53.4267 13.0828C53.5745 12.617 53.7937 12.2082 54.0862 11.8576C54.3806 11.5093 54.7351 11.233 55.154 11.0281C55.5698 10.8291 56.0493 10.7285 56.5919 10.7285C57.1331 10.7285 57.6148 10.8291 58.0342 11.0281C58.4491 11.233 58.8071 11.5093 59.0984 11.8576C59.3914 12.2082 59.6159 12.617 59.7705 13.0828C59.9305 13.5522 60.0089 14.0498 60.0089 14.5834C60.0089 15.1111 59.9305 15.6092 59.7705 16.0768C59.6159 16.5434 59.3914 16.9532 59.0984 17.3029C58.8071 17.6516 58.4491 17.9289 58.0342 18.1301ZM63.7596 14.3953C63.7623 14.3884 63.7686 14.3725 63.7686 14.3666V1.91084C63.7686 1.37952 63.5848 0.928331 63.2201 0.556816C62.8549 0.187123 62.4096 0 61.8889 0C61.3655 0 60.9237 0.187123 60.5568 0.556816C60.192 0.928331 60.0101 1.37952 60.0101 1.91084V8.20838C59.8018 8.09455 59.6055 7.96298 59.3806 7.86509C58.501 7.48128 57.5753 7.29006 56.5931 7.29006C56.5187 7.29006 56.4479 7.29871 56.3736 7.30144C56.3211 7.30144 56.2714 7.29006 56.2154 7.29006C55.2579 7.29006 54.368 7.48128 53.5391 7.86509C52.7119 8.24571 51.9919 8.76656 51.3776 9.42354C50.7637 10.0823 50.282 10.8572 49.9361 11.7478C49.5924 12.6383 49.4199 13.584 49.4199 14.5838C49.4199 15.5818 49.5924 16.5219 49.9361 17.4147C50.282 18.3048 50.7637 19.0815 51.3776 19.7376C51.9919 20.3969 52.7119 20.9154 53.5391 21.2997C54.368 21.6808 55.2579 21.8715 56.2154 21.8715C56.2759 21.8715 56.3319 21.8656 56.3875 21.8588C56.4574 21.8656 56.5241 21.8715 56.5931 21.8715C57.5753 21.8715 58.501 21.6808 59.3806 21.2997C60.2601 20.9154 61.0223 20.3969 61.6689 19.7376C62.3177 19.0815 62.8281 18.3048 63.2035 17.4147C63.5813 16.5219 63.7712 15.5818 63.7712 14.5838C63.7712 14.5205 63.7623 14.4604 63.7596 14.3953Z" fill="white"/>
</g>
<path fill-rule="evenodd" clip-rule="evenodd" d="M43.5262 13.2509C43.3674 12.7773 43.1337 12.3588 42.8355 12.005C42.5321 11.646 42.1659 11.3641 41.7388 11.1556C41.3048 10.9513 40.8089 10.8496 40.2498 10.8496C39.6897 10.8496 39.1938 10.9513 38.7681 11.1556C38.335 11.3641 37.9688 11.646 37.6687 12.005C37.3695 12.3588 37.1405 12.7773 36.9863 13.2509C36.8376 13.7283 36.7637 14.2373 36.7637 14.7815C36.7637 15.3211 36.8376 15.8278 36.9863 16.3047C37.1405 16.7807 37.3695 17.1986 37.6687 17.5553C37.9688 17.911 38.335 18.1938 38.7681 18.3977C39.1938 18.6057 39.6897 18.7093 40.2498 18.7093C40.8089 18.7093 41.3048 18.6057 41.7388 18.3977C42.1659 18.1938 42.5321 17.911 42.8355 17.5553C43.1337 17.1986 43.3674 16.7807 43.5262 16.3047C43.691 15.8278 43.7695 15.3211 43.7695 14.7815C43.7695 14.2373 43.691 13.7283 43.5262 13.2509ZM47.0607 17.6706C46.6719 18.5785 46.1483 19.3707 45.4834 20.0399C44.8144 20.7114 44.0266 21.2408 43.1226 21.6341C42.2144 22.0219 41.2618 22.2165 40.2492 22.2165C39.2399 22.2165 38.2809 22.0219 37.3764 21.6341C36.4709 21.2408 35.6837 20.7114 35.0188 20.0399C34.3502 19.3707 33.8247 18.5785 33.4378 17.6706C33.0504 16.7623 32.8574 15.8011 32.8574 14.7831C32.8574 13.762 33.0504 12.7988 33.4378 11.8905C33.8247 10.9822 34.3502 10.1918 35.0188 9.5203C35.6837 8.84927 36.4709 8.31848 37.3764 7.92887C38.2809 7.54018 39.2399 7.34375 40.2492 7.34375C41.2618 7.34375 42.2144 7.54018 43.1226 7.92887C44.0266 8.31848 44.8144 8.84927 45.4834 9.5203C46.1483 10.1918 46.6719 10.9822 47.0607 11.8905C47.4481 12.7988 47.6438 13.762 47.6438 14.7831C47.6438 15.8011 47.4481 16.7623 47.0607 17.6706Z" fill="white"/>
<path fill-rule="evenodd" clip-rule="evenodd" d="M27.0978 13.2509C26.9367 12.7773 26.7054 12.3588 26.4049 12.005C26.1029 11.646 25.7359 11.3641 25.3066 11.1556C24.8763 10.9513 24.3805 10.8496 23.8224 10.8496C23.2614 10.8496 22.7656 10.9513 22.3372 11.1556C21.9065 11.3641 21.5413 11.646 21.2417 12.005C20.9379 12.3588 20.7094 12.7773 20.5584 13.2509C20.4089 13.7283 20.335 14.2373 20.335 14.7815C20.335 15.3211 20.4089 15.8278 20.5584 16.3047C20.7094 16.7807 20.9379 17.1986 21.2417 17.5553C21.5413 17.911 21.9065 18.1938 22.3372 18.3977C22.7656 18.6057 23.2614 18.7093 23.8224 18.7093C24.3805 18.7093 24.8763 18.6057 25.3066 18.3977C25.7359 18.1938 26.1029 17.911 26.4049 17.5553C26.7054 17.1986 26.9367 16.7807 27.0978 16.3047C27.2612 15.8278 27.3416 15.3211 27.3416 14.7815C27.3416 14.2373 27.2612 13.7283 27.0978 13.2509ZM30.6311 17.6706C30.241 18.5785 29.7157 19.3707 29.0513 20.0399C28.3847 20.7114 27.5971 21.2408 26.6918 21.6341C25.7883 22.0219 24.8341 22.2165 23.8203 22.2165C22.8097 22.2165 21.8532 22.0219 20.9469 21.6341C20.0426 21.2408 19.2577 20.7114 18.5897 20.0399C17.9212 19.3707 17.3936 18.5785 17.0104 17.6706C16.6217 16.7623 16.4287 15.8011 16.4287 14.7831C16.4287 13.762 16.6217 12.7988 17.0104 11.8905C17.3936 10.9822 17.9212 10.1918 18.5897 9.5203C19.2577 8.84927 20.0426 8.31848 20.9469 7.92887C21.8532 7.54018 22.8097 7.34375 23.8203 7.34375C24.8341 7.34375 25.7883 7.54018 26.6918 7.92887C27.5971 8.31848 28.3847 8.84927 29.0513 9.5203C29.7157 10.1918 30.241 10.9822 30.6311 11.8905C31.0208 12.7988 31.2151 13.762 31.2151 14.7831C31.2151 15.8011 31.0208 16.7623 30.6311 17.6706Z" fill="white"/>
<mask id="mask2_1828_46011" style="mask-type:alpha" maskUnits="userSpaceOnUse" x="0" y="7" width="15" height="21">
<path fill-rule="evenodd" clip-rule="evenodd" d="M0 7.44141H14.7286V27.9996H0V7.44141Z" fill="white"/>
</mask>
<g mask="url(#mask2_1828_46011)">
<path fill-rule="evenodd" clip-rule="evenodd" d="M8.88743 18.1343C8.454 18.3341 7.95727 18.4342 7.3977 18.4342C7.22811 18.4342 7.07609 18.4082 6.91621 18.388C6.02903 18.2344 5.32436 17.6749 4.81516 17.1015C4.22416 16.4328 3.92659 15.5787 3.91411 14.5427C3.92381 14.0546 3.99405 13.5907 4.13221 13.1561C4.28377 12.698 4.51342 12.2925 4.81516 11.9512C5.11689 11.6041 5.48055 11.3315 5.91397 11.1299C6.34416 10.9332 6.83812 10.834 7.3977 10.834C7.95727 10.834 8.454 10.9332 8.88743 11.1299C9.31716 11.3315 9.68266 11.6041 9.98393 11.9512C10.2857 12.2925 10.5176 12.698 10.678 13.1561C10.8402 13.6177 10.9196 14.1098 10.9196 14.6361C10.9196 15.1566 10.8402 15.6479 10.678 16.109C10.5176 16.5693 10.2857 16.9735 9.98393 17.3183C9.68266 17.6623 9.31716 17.9358 8.88743 18.1343ZM14.2157 11.8381C13.8285 10.9589 13.3018 10.1955 12.635 9.54613C11.9659 8.89724 11.179 8.38397 10.2729 8.00856C9.37042 7.63136 8.413 7.44141 7.39782 7.44141C7.32805 7.44141 7.25966 7.44994 7.18665 7.45263C7.12751 7.44994 7.07067 7.44141 7.01014 7.44141C6.02222 7.44141 5.10085 7.62642 4.24786 7.9897C3.40041 8.35434 2.65416 8.85683 2.02065 9.48191C1.38345 10.1115 0.890419 10.8556 0.534159 11.7119C0.177437 12.5714 0 13.4929 0 14.4763C0 14.5046 0.00415868 14.5306 0.00415868 14.5571C0.00415868 14.5841 0 14.6088 0 14.6353C0 15.6196 0.194072 16.5469 0.584525 17.4275C0.969896 18.3054 1.49712 19.0715 2.16575 19.7186C2.42405 19.9714 2.717 20.1739 3.02243 20.3571C3.4212 20.6216 3.85001 20.8444 4.31393 21.0226C4.38417 21.0514 4.46365 21.0707 4.54035 21.0976C4.55375 21.1048 4.569 21.1102 4.58379 21.1169C5.48899 21.4942 6.27729 21.6625 7.29201 21.6625C8.30488 21.6625 9.1708 21.4416 10.076 21.0666C10.3514 20.9521 10.5949 20.8062 10.8444 20.6638C10.8454 20.7128 10.8495 20.7617 10.8495 20.8116C10.8495 21.3311 10.7654 21.8278 10.6079 22.3016C10.4452 22.774 10.2142 23.1786 9.91197 23.5261C9.60931 23.871 9.2452 24.1467 8.8127 24.3569C8.38112 24.5661 7.88577 24.6712 7.32805 24.6712C6.63771 24.6712 6.07167 24.5612 5.63039 24.3416C5.18679 24.1211 4.82822 23.9164 4.54913 23.7255C4.2035 23.4781 3.80473 23.3541 3.35374 23.3541C2.87965 23.3541 2.48181 23.5324 2.15789 23.8858C1.89774 24.2002 1.7679 24.5432 1.7679 24.9191C1.7679 25.3825 1.95319 25.81 2.31777 26.2101C2.55943 26.4607 2.85655 26.6965 3.2202 26.9165C3.59079 27.1374 3.9988 27.3242 4.45209 27.4814C4.90493 27.6372 5.37809 27.7625 5.87297 27.8595C6.36878 27.9529 6.85257 27.9996 7.32805 27.9996C8.34184 27.9996 9.29926 27.8128 10.2045 27.4352C11.1097 27.0566 11.8938 26.5451 12.5624 25.8962C13.2292 25.2478 13.7574 24.4835 14.1464 23.6047C14.5336 22.7241 14.7286 21.7941 14.7286 20.8116V20.429V17.6628V14.4808C14.7023 13.5647 14.5794 12.6594 14.2157 11.8381Z" fill="white"/>
</g>
</svg>
