<svg width="409" height="77" viewBox="0 0 409 77" fill="none" xmlns="http://www.w3.org/2000/svg">
<mask id="mask0_784_15328" style="mask-type:alpha" maskUnits="userSpaceOnUse" x="227" y="20" width="36" height="41">
<path fill-rule="evenodd" clip-rule="evenodd" d="M227.788 20.4628H262.734V60.158H227.788V20.4628Z" fill="white"/>
</mask>
<g mask="url(#mask0_784_15328)">
<path fill-rule="evenodd" clip-rule="evenodd" d="M261.249 54.7572C260.599 55.4451 259.796 56.1007 258.811 56.7056C257.819 57.3129 256.714 57.831 255.496 58.2698C254.273 58.6961 253 59.0444 251.667 59.3134C250.328 59.5662 249.023 59.6951 247.743 59.6951C245.006 59.6951 242.427 59.1758 239.984 58.1384C237.543 57.0923 235.421 55.6806 233.626 53.8859C231.825 52.0999 230.404 49.9854 229.354 47.5623C228.315 45.1318 227.788 42.5724 227.788 39.8556C227.788 37.1338 228.315 34.5595 229.354 32.1352C230.404 29.7108 231.825 27.6013 233.626 25.8079C235.421 24.0194 237.543 22.6015 239.984 21.5616C242.427 20.5205 245.006 19.9999 247.743 19.9999C250.118 19.9999 252.382 20.3073 254.536 20.9109C256.685 21.5133 258.549 22.4887 260.114 23.8136C261.384 24.9167 262.039 26.1537 262.039 27.5394C262.039 28.4032 261.74 29.2188 261.163 29.9662C260.165 31.1783 258.897 31.7819 257.324 31.7819C256.284 31.7819 255.301 31.5316 254.365 31.0073C253.375 30.4309 252.36 29.9823 251.313 29.665C250.254 29.3514 249.077 29.189 247.743 29.189C246.232 29.189 244.9 29.4791 243.73 30.0542C242.572 30.6392 241.589 31.3989 240.771 32.3459C239.956 33.3077 239.333 34.4293 238.895 35.7307C238.47 37.0272 238.245 38.4029 238.245 39.8556C238.245 41.2921 238.47 42.6629 238.895 43.9705C239.333 45.2669 239.956 46.3898 240.771 47.3479C241.589 48.3023 242.572 49.0633 243.73 49.6384C244.9 50.2172 246.232 50.5097 247.743 50.5097C249.602 50.5097 251.128 50.2035 252.314 49.5962C253.514 48.9889 254.477 48.4237 255.232 47.9032C256.167 47.2153 257.237 46.872 258.456 46.872C259.731 46.872 260.806 47.364 261.684 48.3382C262.374 49.2132 262.734 50.1577 262.734 51.205C262.734 52.4717 262.235 53.6529 261.249 54.7572Z" fill="#008BFF"/>
</g>
<path fill-rule="evenodd" clip-rule="evenodd" d="M211.566 36.4431C211.116 35.1405 210.478 33.9898 209.652 33.0167C208.816 32.0295 207.815 31.2543 206.64 30.6809C205.455 30.119 204.086 29.8393 202.549 29.8393C201.013 29.8393 199.651 30.119 198.475 30.6809C197.289 31.2543 196.282 32.0295 195.454 33.0167C194.621 33.9898 194.006 35.1405 193.587 36.4431C193.168 37.756 192.963 39.1556 192.963 40.6524C192.963 42.1363 193.168 43.5296 193.587 44.8412C194.006 46.1502 194.621 47.2996 195.454 48.2804C196.282 49.2586 197.289 50.0364 198.475 50.597C199.651 51.1692 201.013 51.4539 202.549 51.4539C204.086 51.4539 205.455 51.1692 206.64 50.597C207.815 50.0364 208.816 49.2586 209.652 48.2804C210.478 47.2996 211.116 46.1502 211.566 44.8412C212.002 43.5296 212.228 42.1363 212.228 40.6524C212.228 39.1556 212.002 37.756 211.566 36.4431ZM221.277 48.5921C220.213 51.0888 218.765 53.2675 216.933 55.1077C215.098 56.9544 212.936 58.4103 210.449 59.492C207.962 60.5583 205.333 61.0934 202.548 61.0934C199.772 61.0934 197.13 60.5583 194.646 59.492C192.169 58.4103 190.005 56.9544 188.175 55.1077C186.341 53.2675 184.891 51.0888 183.826 48.5921C182.764 46.0941 182.228 43.4505 182.228 40.6512C182.228 37.8429 182.764 35.1942 183.826 32.6962C184.891 30.1982 186.341 28.0246 188.175 26.178C190.005 24.3326 192.169 22.8729 194.646 21.8014C197.13 20.7325 199.772 20.1923 202.548 20.1923C205.333 20.1923 207.962 20.7325 210.449 21.8014C212.936 22.8729 215.098 24.3326 216.933 26.178C218.765 28.0246 220.213 30.1982 221.277 32.6962C222.352 35.1942 222.88 37.8429 222.88 40.6512C222.88 43.4505 222.352 46.0941 221.277 48.5921Z" fill="#008BFF"/>
<mask id="mask1_784_15328" style="mask-type:alpha" maskUnits="userSpaceOnUse" x="137" y="0" width="40" height="61">
<path fill-rule="evenodd" clip-rule="evenodd" d="M137.422 0H176.878V60.1482H137.422V0Z" fill="white"/>
</mask>
<g mask="url(#mask1_784_15328)">
<path fill-rule="evenodd" clip-rule="evenodd" d="M161.105 49.8595C159.952 50.4167 158.628 50.6959 157.14 50.6959C155.648 50.6959 154.33 50.4167 153.187 49.8595C152.035 49.3061 151.06 48.5436 150.251 47.5845C149.447 46.6229 148.844 45.496 148.438 44.2126C148.042 42.9267 147.837 41.557 147.837 40.1058C147.837 38.6384 148.042 37.2699 148.438 35.979C148.844 34.6981 149.447 33.5737 150.251 32.6096C151.06 31.6518 152.035 30.8918 153.187 30.3284C154.33 29.7812 155.648 29.5045 157.14 29.5045C158.628 29.5045 159.952 29.7812 161.105 30.3284C162.246 30.8918 163.23 31.6518 164.031 32.6096C164.837 33.5737 165.454 34.6981 165.879 35.979C166.318 37.2699 166.534 38.6384 166.534 40.1058C166.534 41.557 166.318 42.9267 165.879 44.2126C165.454 45.496 164.837 46.6229 164.031 47.5845C163.23 48.5436 162.246 49.3061 161.105 49.8595ZM176.845 39.5881C176.853 39.5694 176.87 39.5255 176.87 39.5093V5.25496C176.87 3.79379 176.365 2.55298 175.362 1.53129C174.358 0.514603 173.134 0 171.702 0C170.263 0 169.049 0.514603 168.04 1.53129C167.037 2.55298 166.537 3.79379 166.537 5.25496V22.5737C165.964 22.2607 165.425 21.8988 164.806 21.6296C162.388 20.5741 159.843 20.0482 157.143 20.0482C156.938 20.0482 156.744 20.072 156.539 20.0795C156.395 20.0795 156.258 20.0482 156.104 20.0482C153.472 20.0482 151.025 20.5741 148.746 21.6296C146.472 22.6764 144.492 24.1087 142.804 25.9155C141.116 27.7272 139.792 29.8583 138.841 32.3073C137.896 34.7564 137.422 37.3569 137.422 40.1065C137.422 42.8511 137.896 45.4366 138.841 47.8919C139.792 50.3397 141.116 52.4758 142.804 54.28C144.492 56.093 146.472 57.5191 148.746 58.5759C151.025 59.6239 153.472 60.1485 156.104 60.1485C156.27 60.1485 156.424 60.1322 156.577 60.1134C156.769 60.1322 156.953 60.1485 157.143 60.1485C159.843 60.1485 162.388 59.6239 164.806 58.5759C167.224 57.5191 169.32 56.093 171.097 54.28C172.881 52.4758 174.284 50.3397 175.317 47.8919C176.355 45.4366 176.877 42.8511 176.877 40.1065C176.877 39.9325 176.853 39.7672 176.845 39.5881Z" fill="#008BFF"/>
</g>
<path fill-rule="evenodd" clip-rule="evenodd" d="M121.22 36.4431C120.783 35.1405 120.141 33.9898 119.321 33.0167C118.487 32.0295 117.48 31.2543 116.306 30.6809C115.113 30.119 113.749 29.8393 112.212 29.8393C110.672 29.8393 109.309 30.119 108.138 30.6809C106.948 31.2543 105.941 32.0295 105.116 33.0167C104.293 33.9898 103.664 35.1405 103.24 36.4431C102.831 37.756 102.628 39.1556 102.628 40.6524C102.628 42.1363 102.831 43.5296 103.24 44.8412C103.664 46.1502 104.293 47.2996 105.116 48.2804C105.941 49.2586 106.948 50.0364 108.138 50.597C109.309 51.1692 110.672 51.4539 112.212 51.4539C113.749 51.4539 115.113 51.1692 116.306 50.597C117.48 50.0364 118.487 49.2586 119.321 48.2804C120.141 47.2996 120.783 46.1502 121.22 44.8412C121.673 43.5296 121.889 42.1363 121.889 40.6524C121.889 39.1556 121.673 37.756 121.22 36.4431ZM130.94 48.5921C129.871 51.0888 128.431 53.2675 126.603 55.1077C124.764 56.9544 122.598 58.4103 120.113 59.492C117.616 60.5583 114.997 61.0934 112.213 61.0934C109.438 61.0934 106.802 60.5583 104.315 59.492C101.826 58.4103 99.6612 56.9544 97.8333 55.1077C95.9952 53.2675 94.5506 51.0888 93.4868 48.5921C92.4217 46.0941 91.8911 43.4505 91.8911 40.6512C91.8911 37.8429 92.4217 35.1942 93.4868 32.6962C94.5506 30.1982 95.9952 28.0246 97.8333 26.178C99.6612 24.3326 101.826 22.8729 104.315 21.8014C106.802 20.7325 109.438 20.1923 112.213 20.1923C114.997 20.1923 117.616 20.7325 120.113 21.8014C122.598 22.8729 124.764 24.3326 126.603 26.178C128.431 28.0246 129.871 30.1982 130.94 32.6962C132.005 35.1942 132.543 37.8429 132.543 40.6512C132.543 43.4505 132.005 46.0941 130.94 48.5921Z" fill="#008BFF"/>
<path fill-rule="evenodd" clip-rule="evenodd" d="M76.0487 36.4431C75.6057 35.1405 74.9698 33.9898 74.1436 33.0167C73.3135 32.0295 72.3045 31.2543 71.1241 30.6809C69.9412 30.119 68.578 29.8393 67.0435 29.8393C65.5014 29.8393 64.1383 30.119 62.9604 30.6809C61.7762 31.2543 60.7723 32.0295 59.9486 33.0167C59.1134 33.9898 58.4852 35.1405 58.0701 36.4431C57.6589 37.756 57.4558 39.1556 57.4558 40.6524C57.4558 42.1363 57.6589 43.5296 58.0701 44.8412C58.4852 46.1502 59.1134 47.2996 59.9486 48.2804C60.7723 49.2586 61.7762 50.0364 62.9604 50.597C64.1383 51.1692 65.5014 51.4539 67.0435 51.4539C68.578 51.4539 69.9412 51.1692 71.1241 50.597C72.3045 50.0364 73.3135 49.2586 74.1436 48.2804C74.9698 47.2996 75.6057 46.1502 76.0487 44.8412C76.498 43.5296 76.7188 42.1363 76.7188 40.6524C76.7188 39.1556 76.498 37.756 76.0487 36.4431ZM85.7654 48.5921C84.6929 51.0888 83.2485 53.2675 81.4221 55.1077C79.5893 56.9544 77.424 58.4103 74.9351 59.492C72.4512 60.5583 69.8277 61.0934 67.0405 61.0934C64.2622 61.0934 61.6324 60.5583 59.1409 59.492C56.6545 58.4103 54.4968 56.9544 52.6602 55.1077C50.8224 53.2675 49.3717 51.0888 48.3182 48.5921C47.2495 46.0941 46.719 43.4505 46.719 40.6512C46.719 37.8429 47.2495 35.1942 48.3182 32.6962C49.3717 30.1982 50.8224 28.0246 52.6602 26.178C54.4968 24.3326 56.6545 22.8729 59.1409 21.8014C61.6324 20.7325 64.2622 20.1923 67.0405 20.1923C69.8277 20.1923 72.4512 20.7325 74.9351 21.8014C77.424 22.8729 79.5893 24.3326 81.4221 26.178C83.2485 28.0246 84.6929 30.1982 85.7654 32.6962C86.8366 35.1942 87.3709 37.8429 87.3709 40.6512C87.3709 43.4505 86.8366 46.0941 85.7654 48.5921Z" fill="#008BFF"/>
<mask id="mask2_784_15328" style="mask-type:alpha" maskUnits="userSpaceOnUse" x="1" y="20" width="42" height="57">
<path fill-rule="evenodd" clip-rule="evenodd" d="M1.55273 20.4628H42.0458V76.9995H1.55273V20.4628Z" fill="white"/>
</mask>
<g mask="url(#mask2_784_15328)">
<path fill-rule="evenodd" clip-rule="evenodd" d="M25.9873 49.868C24.7957 50.4176 23.4301 50.693 21.8917 50.693C21.4254 50.693 21.0075 50.6213 20.5679 50.5658C18.1288 50.1434 16.1915 48.6047 14.7915 47.0277C13.1667 45.1888 12.3486 42.84 12.3143 39.991C12.341 38.6486 12.5341 37.3729 12.9139 36.1775C13.3306 34.9179 13.962 33.8027 14.7915 32.8642C15.6211 31.9096 16.6209 31.1599 17.8125 30.6055C18.9952 30.0646 20.3532 29.7916 21.8917 29.7916C23.4301 29.7916 24.7957 30.0646 25.9873 30.6055C27.1688 31.1599 28.1737 31.9096 29.0019 32.8642C29.8315 33.8027 30.4692 34.9179 30.91 36.1775C31.3559 37.447 31.5744 38.8005 31.5744 40.2479C31.5744 41.6791 31.3559 43.0302 30.91 44.2984C30.4692 45.5643 29.8315 46.6757 29.0019 47.6241C28.1737 48.5701 27.1688 49.3222 25.9873 49.868ZM40.6358 32.554C39.5712 30.1359 38.123 28.0366 36.2898 26.2508C34.4503 24.4663 32.2869 23.0548 29.7957 22.0224C27.3146 20.9851 24.6824 20.4627 21.8914 20.4627C21.6996 20.4627 21.5116 20.4861 21.3109 20.4936C21.1482 20.4861 20.992 20.4627 20.8256 20.4627C18.1095 20.4627 15.5764 20.9715 13.2313 21.9705C10.9014 22.9733 8.84976 24.3552 7.10808 26.0742C5.35623 27.8056 4.00074 29.8519 3.02129 32.2069C2.04056 34.5706 1.55273 37.1047 1.55273 39.8092C1.55273 39.887 1.56417 39.9586 1.56417 40.0315C1.56417 40.1056 1.55273 40.1735 1.55273 40.2464C1.55273 42.9534 2.08629 45.5035 3.15976 47.9252C4.21925 50.3395 5.66875 52.4463 7.50698 54.2259C8.21712 54.9212 9.02253 55.4781 9.86225 55.982C10.9586 56.7094 12.1375 57.3219 13.4129 57.8122C13.606 57.8912 13.8245 57.9443 14.0354 58.0184C14.0723 58.0381 14.1142 58.053 14.1548 58.0715C16.6435 59.1088 18.8108 59.5719 21.6005 59.5719C24.3852 59.5719 26.7658 58.9644 29.2545 57.9332C30.0116 57.6183 30.6811 57.2169 31.3671 56.8254C31.3697 56.96 31.3811 57.0947 31.3811 57.2317C31.3811 58.6606 31.1499 60.0264 30.7167 61.3293C30.2695 62.6284 29.6343 63.7411 28.8035 64.6969C27.9714 65.6454 26.9704 66.4036 25.7813 66.9816C24.5948 67.5571 23.2329 67.846 21.6996 67.846C19.8017 67.846 18.2454 67.5435 17.0322 66.9396C15.8127 66.3332 14.8269 65.7701 14.0596 65.2452C13.1093 64.5648 12.013 64.224 10.7731 64.224C9.4697 64.224 8.37591 64.7142 7.48538 65.6861C6.77016 66.5506 6.41318 67.4941 6.41318 68.5277C6.41318 69.8022 6.9226 70.9778 7.92493 72.0782C8.58933 72.7673 9.40618 73.4156 10.406 74.0207C11.4248 74.6283 12.5465 75.142 13.7928 75.5743C15.0378 76.0028 16.3386 76.3473 17.6992 76.6141C19.0623 76.871 20.3924 76.9994 21.6996 76.9994C24.4868 76.9994 27.119 76.4857 29.6077 75.4471C32.0963 74.406 34.2522 72.9994 36.0904 71.2149C37.9235 69.4317 39.3756 67.3298 40.4452 64.913C41.5098 62.4913 42.0459 59.9338 42.0459 57.2317V56.1796V48.5723V39.8216C41.9735 37.3023 41.6356 34.8127 40.6358 32.554Z" fill="#008BFF"/>
</g>
<path d="M294.581 40.604H299.173V44.02H302.869V28.62H299.173V32.372H294.581V30.16H290.969V33.632H286.069V30.188H282.401V42.592H294.581V40.604ZM299.173 35.312V37.664H294.581V35.312H299.173ZM290.969 39.652H286.069V36.46H290.969V39.652ZM294.133 44.496C288.673 44.496 285.313 46.316 285.313 49.452C285.313 52.588 288.673 54.436 294.133 54.436C299.621 54.436 302.981 52.588 302.981 49.452C302.981 46.316 299.621 44.496 294.133 44.496ZM294.133 51.608C290.717 51.608 289.009 50.88 289.009 49.452C289.009 48.024 290.717 47.296 294.133 47.296C297.577 47.296 299.285 48.024 299.285 49.452C299.285 50.88 297.577 51.608 294.133 51.608ZM320.227 43.6V46.12H325.071V48.164H328.767V28.62H325.071V43.6H320.227ZM315.271 38.7C318.995 38.7 321.683 36.852 321.683 34.108C321.683 31.336 318.995 29.488 315.271 29.488C311.491 29.488 308.831 31.336 308.831 34.108C308.831 36.852 311.491 38.7 315.271 38.7ZM315.271 32.176C316.979 32.176 318.183 32.848 318.183 34.108C318.183 35.368 316.979 36.012 315.271 36.012C313.479 36.012 312.331 35.368 312.331 34.108C312.331 32.848 313.479 32.176 315.271 32.176ZM313.899 51.02V47.492H317.455V42.62C319.583 42.48 321.599 42.256 323.615 41.892L323.363 39.26C317.931 39.932 311.659 40.044 306.955 40.044L307.431 42.984C309.363 42.984 311.519 42.956 313.787 42.844V46.288H310.203V53.96H329.327V51.02H313.899ZM353.405 36.46V28.592H349.709V47.912H353.405V39.512H356.485V36.46H353.405ZM346.601 39.68C347.189 36.404 347.189 33.884 347.189 32.092V30.496H333.945V33.436H343.549C343.521 35.004 343.409 36.796 342.989 39.26L346.601 39.68ZM348.309 40.716C345.845 41.052 343.353 41.248 340.777 41.36V36.488H337.165V41.5C335.485 41.528 333.889 41.528 332.461 41.528L332.797 44.468C337.193 44.468 343.241 44.328 348.533 43.348L348.309 40.716ZM339.909 46.204H336.213V53.96H354.217V51.02H339.909V46.204ZM376.335 28.592V54.464H380.031V28.592H376.335ZM363.735 40.772H372.107V30.804H359.927V33.744H368.327V37.86H359.955V48.472H362.279C366.983 48.472 370.679 48.332 374.935 47.576L374.543 44.58C370.931 45.168 367.655 45.42 363.735 45.42V40.772ZM408.281 38.448H404.529V28.62H400.833V54.408H404.529V41.5H408.281V38.448ZM393.805 34.136H398.929V31.084H384.761V34.136H390.109V35.564C390.109 39.82 388.009 44.692 383.781 46.624L385.853 49.564C388.793 48.136 390.865 45.364 392.013 41.976C393.161 45.028 395.121 47.604 398.033 48.92L400.077 46.008C395.849 44.076 393.805 39.484 393.805 35.564V34.136Z" fill="#008BFF"/>
</svg>
