<svg width="384" height="81" viewBox="0 0 384 81" fill="none" xmlns="http://www.w3.org/2000/svg">
<mask id="mask0_792_1343" style="mask-type:alpha" maskUnits="userSpaceOnUse" x="227" y="24" width="36" height="41">
<path fill-rule="evenodd" clip-rule="evenodd" d="M227.788 24.4629H262.734V64.1581H227.788V24.4629Z" fill="white"/>
</mask>
<g mask="url(#mask0_792_1343)">
<path fill-rule="evenodd" clip-rule="evenodd" d="M261.249 58.7573C260.599 59.4452 259.796 60.1008 258.811 60.7057C257.819 61.313 256.714 61.8311 255.496 62.2698C254.273 62.6962 253 63.0445 251.667 63.3134C250.328 63.5663 249.023 63.6952 247.743 63.6952C245.006 63.6952 242.427 63.1759 239.984 62.1385C237.543 61.0924 235.421 59.6807 233.626 57.886C231.825 56.1 230.404 53.9855 229.354 51.5624C228.315 49.1319 227.788 46.5725 227.788 43.8556C227.788 41.1339 228.315 38.5596 229.354 36.1352C230.404 33.7109 231.825 31.6014 233.626 29.808C235.421 28.0195 237.543 26.6016 239.984 25.5617C242.427 24.5206 245.006 24 247.743 24C250.118 24 252.382 24.3074 254.536 24.911C256.685 25.5133 258.549 26.4888 260.114 27.8137C261.384 28.9168 262.039 30.1538 262.039 31.5394C262.039 32.4033 261.74 33.2189 261.163 33.9662C260.165 35.1784 258.897 35.782 257.324 35.782C256.284 35.782 255.301 35.5316 254.365 35.0074C253.375 34.431 252.36 33.9824 251.313 33.6651C250.254 33.3515 249.077 33.1891 247.743 33.1891C246.232 33.1891 244.9 33.4792 243.73 34.0542C242.572 34.6393 241.589 35.399 240.771 36.346C239.956 37.3077 239.333 38.4294 238.895 39.7308C238.47 41.0273 238.245 42.403 238.245 43.8556C238.245 45.2921 238.47 46.663 238.895 47.9706C239.333 49.267 239.956 50.3899 240.771 51.348C241.589 52.3024 242.572 53.0634 243.73 53.6385C244.9 54.2173 246.232 54.5098 247.743 54.5098C249.602 54.5098 251.128 54.2036 252.314 53.5963C253.514 52.989 254.477 52.4238 255.232 51.9033C256.167 51.2154 257.237 50.8721 258.456 50.8721C259.731 50.8721 260.806 51.3641 261.684 52.3383C262.374 53.2133 262.734 54.1578 262.734 55.2051C262.734 56.4718 262.235 57.653 261.249 58.7573Z" fill="#008BFF"/>
</g>
<path fill-rule="evenodd" clip-rule="evenodd" d="M211.566 40.4432C211.116 39.1406 210.478 37.9899 209.651 37.0168C208.816 36.0296 207.815 35.2544 206.639 34.681C205.455 34.1191 204.086 33.8394 202.548 33.8394C201.013 33.8394 199.651 34.1191 198.475 34.681C197.288 35.2544 196.282 36.0296 195.454 37.0168C194.62 37.9899 194.006 39.1406 193.587 40.4432C193.168 41.756 192.963 43.1557 192.963 44.6525C192.963 46.1364 193.168 47.5297 193.587 48.8413C194.006 50.1503 194.62 51.2997 195.454 52.2805C196.282 53.2587 197.288 54.0365 198.475 54.5971C199.651 55.1692 201.013 55.454 202.548 55.454C204.086 55.454 205.455 55.1692 206.639 54.5971C207.815 54.0365 208.816 53.2587 209.651 52.2805C210.478 51.2997 211.116 50.1503 211.566 48.8413C212.002 47.5297 212.228 46.1364 212.228 44.6525C212.228 43.1557 212.002 41.756 211.566 40.4432ZM221.277 52.5922C220.213 55.0889 218.765 57.2676 216.933 59.1078C215.098 60.9545 212.936 62.4104 210.448 63.4921C207.962 64.5584 205.333 65.0935 202.548 65.0935C199.772 65.0935 197.13 64.5584 194.646 63.4921C192.169 62.4104 190.005 60.9545 188.175 59.1078C186.341 57.2676 184.891 55.0889 183.826 52.5922C182.764 50.0942 182.228 47.4506 182.228 44.6513C182.228 41.8429 182.764 39.1943 183.826 36.6963C184.891 34.1983 186.341 32.0247 188.175 30.1781C190.005 28.3327 192.169 26.873 194.646 25.8015C197.13 24.7326 199.772 24.1924 202.548 24.1924C205.333 24.1924 207.962 24.7326 210.448 25.8015C212.936 26.873 215.098 28.3327 216.933 30.1781C218.765 32.0247 220.213 34.1983 221.277 36.6963C222.352 39.1943 222.88 41.8429 222.88 44.6513C222.88 47.4506 222.352 50.0942 221.277 52.5922Z" fill="#008BFF"/>
<mask id="mask1_792_1343" style="mask-type:alpha" maskUnits="userSpaceOnUse" x="137" y="4" width="40" height="61">
<path fill-rule="evenodd" clip-rule="evenodd" d="M137.422 4H176.878V64.1482H137.422V4Z" fill="white"/>
</mask>
<g mask="url(#mask1_792_1343)">
<path fill-rule="evenodd" clip-rule="evenodd" d="M161.105 53.8595C159.952 54.4167 158.628 54.6959 157.14 54.6959C155.648 54.6959 154.33 54.4167 153.187 53.8595C152.035 53.3061 151.06 52.5435 150.251 51.5845C149.447 50.6229 148.844 49.496 148.438 48.2126C148.042 46.9267 147.836 45.557 147.836 44.1058C147.836 42.6384 148.042 41.2699 148.438 39.979C148.844 38.6981 149.447 37.5737 150.251 36.6096C151.06 35.6518 152.035 34.8918 153.187 34.3284C154.33 33.7812 155.648 33.5045 157.14 33.5045C158.628 33.5045 159.952 33.7812 161.105 34.3284C162.246 34.8918 163.23 35.6518 164.031 36.6096C164.836 37.5737 165.454 38.6981 165.879 39.979C166.318 41.2699 166.534 42.6384 166.534 44.1058C166.534 45.557 166.318 46.9267 165.879 48.2126C165.454 49.496 164.836 50.6229 164.031 51.5845C163.23 52.5435 162.246 53.3061 161.105 53.8595ZM176.845 43.5881C176.853 43.5694 176.87 43.5255 176.87 43.5093V9.25496C176.87 7.79379 176.365 6.55298 175.362 5.53129C174.358 4.5146 173.134 4 171.702 4C170.263 4 169.049 4.5146 168.04 5.53129C167.037 6.55298 166.537 7.79379 166.537 9.25496V26.5737C165.964 26.2607 165.424 25.8988 164.806 25.6296C162.388 24.5741 159.843 24.0482 157.143 24.0482C156.938 24.0482 156.743 24.072 156.539 24.0795C156.395 24.0795 156.258 24.0482 156.104 24.0482C153.472 24.0482 151.025 24.5741 148.746 25.6296C146.472 26.6764 144.492 28.1087 142.803 29.9155C141.116 31.7272 139.792 33.8583 138.841 36.3073C137.896 38.7564 137.421 41.3569 137.421 44.1065C137.421 46.8511 137.896 49.4366 138.841 51.8919C139.792 54.3397 141.116 56.4758 142.803 58.28C144.492 60.093 146.472 61.5191 148.746 62.5759C151.025 63.6239 153.472 64.1485 156.104 64.1485C156.27 64.1485 156.424 64.1322 156.577 64.1134C156.769 64.1322 156.953 64.1485 157.143 64.1485C159.843 64.1485 162.388 63.6239 164.806 62.5759C167.224 61.5191 169.32 60.093 171.097 58.28C172.881 56.4758 174.284 54.3397 175.316 51.8919C176.355 49.4366 176.877 46.8511 176.877 44.1065C176.877 43.9325 176.853 43.7672 176.845 43.5881Z" fill="#008BFF"/>
</g>
<path fill-rule="evenodd" clip-rule="evenodd" d="M121.22 40.4432C120.783 39.1406 120.141 37.9899 119.321 37.0168C118.487 36.0296 117.48 35.2544 116.306 34.681C115.113 34.1191 113.749 33.8394 112.212 33.8394C110.672 33.8394 109.309 34.1191 108.138 34.681C106.948 35.2544 105.941 36.0296 105.116 37.0168C104.293 37.9899 103.664 39.1406 103.24 40.4432C102.831 41.756 102.628 43.1557 102.628 44.6525C102.628 46.1364 102.831 47.5297 103.24 48.8413C103.664 50.1503 104.293 51.2997 105.116 52.2805C105.941 53.2587 106.948 54.0365 108.138 54.5971C109.309 55.1692 110.672 55.454 112.212 55.454C113.749 55.454 115.113 55.1692 116.306 54.5971C117.48 54.0365 118.487 53.2587 119.321 52.2805C120.141 51.2997 120.783 50.1503 121.22 48.8413C121.673 47.5297 121.889 46.1364 121.889 44.6525C121.889 43.1557 121.673 41.756 121.22 40.4432ZM130.94 52.5922C129.871 55.0889 128.431 57.2676 126.603 59.1078C124.764 60.9545 122.598 62.4104 120.113 63.4921C117.616 64.5584 114.997 65.0935 112.213 65.0935C109.438 65.0935 106.802 64.5584 104.315 63.4921C101.826 62.4104 99.6612 60.9545 97.8333 59.1078C95.9952 57.2676 94.5506 55.0889 93.4868 52.5922C92.4217 50.0942 91.8911 47.4506 91.8911 44.6513C91.8911 41.8429 92.4217 39.1943 93.4868 36.6963C94.5506 34.1983 95.9952 32.0247 97.8333 30.1781C99.6612 28.3327 101.826 26.873 104.315 25.8015C106.802 24.7326 109.438 24.1924 112.213 24.1924C114.997 24.1924 117.616 24.7326 120.113 25.8015C122.598 26.873 124.764 28.3327 126.603 30.1781C128.431 32.0247 129.871 34.1983 130.94 36.6963C132.005 39.1943 132.543 41.8429 132.543 44.6513C132.543 47.4506 132.005 50.0942 130.94 52.5922Z" fill="#008BFF"/>
<path fill-rule="evenodd" clip-rule="evenodd" d="M76.0487 40.4432C75.6057 39.1406 74.9698 37.9899 74.1436 37.0168C73.3135 36.0296 72.3045 35.2544 71.1241 34.681C69.9412 34.1191 68.578 33.8394 67.0435 33.8394C65.5014 33.8394 64.1383 34.1191 62.9604 34.681C61.7762 35.2544 60.7723 36.0296 59.9486 37.0168C59.1134 37.9899 58.4852 39.1406 58.0701 40.4432C57.6589 41.756 57.4558 43.1557 57.4558 44.6525C57.4558 46.1364 57.6589 47.5297 58.0701 48.8413C58.4852 50.1503 59.1134 51.2997 59.9486 52.2805C60.7723 53.2587 61.7762 54.0365 62.9604 54.5971C64.1383 55.1692 65.5014 55.454 67.0435 55.454C68.578 55.454 69.9412 55.1692 71.1241 54.5971C72.3045 54.0365 73.3135 53.2587 74.1436 52.2805C74.9698 51.2997 75.6057 50.1503 76.0487 48.8413C76.498 47.5297 76.7188 46.1364 76.7188 44.6525C76.7188 43.1557 76.498 41.756 76.0487 40.4432ZM85.7654 52.5922C84.6929 55.0889 83.2485 57.2676 81.4221 59.1078C79.5893 60.9545 77.424 62.4104 74.9351 63.4921C72.4512 64.5584 69.8277 65.0935 67.0405 65.0935C64.2622 65.0935 61.6324 64.5584 59.1409 63.4921C56.6545 62.4104 54.4968 60.9545 52.6602 59.1078C50.8224 57.2676 49.3717 55.0889 48.3182 52.5922C47.2495 50.0942 46.719 47.4506 46.719 44.6513C46.719 41.8429 47.2495 39.1943 48.3182 36.6963C49.3717 34.1983 50.8224 32.0247 52.6602 30.1781C54.4968 28.3327 56.6545 26.873 59.1409 25.8015C61.6324 24.7326 64.2622 24.1924 67.0405 24.1924C69.8277 24.1924 72.4512 24.7326 74.9351 25.8015C77.424 26.873 79.5893 28.3327 81.4221 30.1781C83.2485 32.0247 84.6929 34.1983 85.7654 36.6963C86.8366 39.1943 87.3709 41.8429 87.3709 44.6513C87.3709 47.4506 86.8366 50.0942 85.7654 52.5922Z" fill="#008BFF"/>
<mask id="mask2_792_1343" style="mask-type:alpha" maskUnits="userSpaceOnUse" x="1" y="24" width="42" height="57">
<path fill-rule="evenodd" clip-rule="evenodd" d="M1.55273 24.4629H42.0458V80.9996H1.55273V24.4629Z" fill="white"/>
</mask>
<g mask="url(#mask2_792_1343)">
<path fill-rule="evenodd" clip-rule="evenodd" d="M25.9873 53.8682C24.7957 54.4178 23.43 54.6932 21.8916 54.6932C21.4254 54.6932 21.0074 54.6215 20.5679 54.566C18.1288 54.1436 16.1915 52.6049 14.7915 51.0279C13.1667 49.189 12.3486 46.8402 12.3143 43.9912C12.3409 42.6488 12.534 41.3731 12.9139 40.1777C13.3306 38.9181 13.9619 37.8029 14.7915 36.8644C15.6211 35.9098 16.6208 35.1602 17.8124 34.6057C18.9952 34.0648 20.3532 33.7918 21.8916 33.7918C23.43 33.7918 24.7957 34.0648 25.9873 34.6057C27.1688 35.1602 28.1736 35.9098 29.0019 36.8644C29.8315 37.8029 30.4692 38.9181 30.91 40.1777C31.3559 41.4472 31.5744 42.8007 31.5744 44.2481C31.5744 45.6794 31.3559 47.0304 30.91 48.2987C30.4692 49.5645 29.8315 50.6759 29.0019 51.6243C28.1736 52.5703 27.1688 53.3224 25.9873 53.8682ZM40.6358 36.5542C39.5712 34.1362 38.123 32.0368 36.2898 30.251C34.4503 28.4666 32.2869 27.055 29.7957 26.0226C27.3146 24.9853 24.6824 24.4629 21.8914 24.4629C21.6996 24.4629 21.5116 24.4864 21.3109 24.4938C21.1482 24.4864 20.992 24.4629 20.8256 24.4629C18.1095 24.4629 15.5764 24.9717 13.2313 25.9708C10.9014 26.9735 8.84976 28.3554 7.10808 30.0745C5.35623 31.8058 4.00074 33.8521 3.02129 36.2072C2.04056 38.5708 1.55273 41.1049 1.55273 43.8094C1.55273 43.8872 1.56417 43.9589 1.56417 44.0317C1.56417 44.1058 1.55273 44.1737 1.55273 44.2466C1.55273 46.9536 2.08629 49.5037 3.15976 51.9255C4.21925 54.3398 5.66875 56.4466 7.50698 58.2261C8.21712 58.9214 9.02253 59.4783 9.86225 59.9822C10.9586 60.7096 12.1375 61.3221 13.4129 61.8124C13.606 61.8914 13.8245 61.9445 14.0354 62.0186C14.0723 62.0384 14.1142 62.0532 14.1548 62.0717C16.6435 63.1091 18.8108 63.5722 21.6005 63.5722C24.3852 63.5722 26.7658 62.9646 29.2545 61.9334C30.0116 61.6185 30.6811 61.2171 31.3671 60.8256C31.3697 60.9603 31.3811 61.0949 31.3811 61.2319C31.3811 62.6608 31.1499 64.0266 30.7167 65.3295C30.2695 66.6286 29.6343 67.7413 28.8035 68.6971C27.9714 69.6456 26.9704 70.4038 25.7813 70.9818C24.5948 71.5573 23.2329 71.8462 21.6996 71.8462C19.8017 71.8462 18.2454 71.5437 17.0322 70.9398C15.8127 70.3334 14.8269 69.7703 14.0596 69.2455C13.1093 68.565 12.013 68.2242 10.7731 68.2242C9.4697 68.2242 8.37591 68.7144 7.48538 69.6863C6.77016 70.5508 6.41318 71.4943 6.41318 72.5279C6.41318 73.8024 6.9226 74.978 7.92493 76.0784C8.58933 76.7675 9.40618 77.4158 10.406 78.0209C11.4248 78.6285 12.5465 79.1423 13.7928 79.5745C15.0378 80.003 16.3386 80.3476 17.6992 80.6143C19.0623 80.8712 20.3924 80.9996 21.6996 80.9996C24.4868 80.9996 27.119 80.4859 29.6077 79.4473C32.0963 78.4062 34.2522 76.9996 36.0904 75.2152C37.9235 73.4319 39.3756 71.33 40.4452 68.9133C41.5098 66.4915 42.0459 63.934 42.0459 61.2319V60.1798V52.5726V43.8218C41.9735 41.3025 41.6356 38.8129 40.6358 36.5542Z" fill="#008BFF"/>
</g>
<path d="M299.496 32.62V58.408H303.192V32.62H299.496ZM297.816 35.476H291.936V32.704H288.24V35.476H282.332V38.36H297.816V35.476ZM291.936 48.888C294.736 48.356 296.472 46.62 296.472 44.24C296.472 41.328 293.812 39.368 290.088 39.368C286.308 39.368 283.676 41.328 283.676 44.24C283.676 46.62 285.44 48.356 288.24 48.888V51.072C285.888 51.156 283.76 51.128 281.828 51.128L282.276 54.124C286.812 54.124 292.804 54.096 298.432 53.06L298.152 50.4C296.136 50.708 294.064 50.82 291.936 50.932V48.888ZM287.204 44.24C287.204 42.896 288.38 42.168 290.088 42.168C291.88 42.168 292.972 42.896 292.972 44.24C292.972 45.556 291.88 46.284 290.088 46.284C288.38 46.284 287.204 45.556 287.204 44.24ZM320.606 47.6V50.12H325.45V52.164H329.146V32.62H325.45V47.6H320.606ZM315.65 42.7C319.374 42.7 322.062 40.852 322.062 38.108C322.062 35.336 319.374 33.488 315.65 33.488C311.87 33.488 309.21 35.336 309.21 38.108C309.21 40.852 311.87 42.7 315.65 42.7ZM315.65 36.176C317.358 36.176 318.562 36.848 318.562 38.108C318.562 39.368 317.358 40.012 315.65 40.012C313.858 40.012 312.71 39.368 312.71 38.108C312.71 36.848 313.858 36.176 315.65 36.176ZM314.278 55.02V51.492H317.834V46.62C319.962 46.48 321.978 46.256 323.994 45.892L323.742 43.26C318.31 43.932 312.038 44.044 307.334 44.044L307.81 46.984C309.742 46.984 311.898 46.956 314.166 46.844V50.288H310.582V57.96H329.706V55.02H314.278ZM357.004 42.448H353.392V32.592H349.696V58.352H353.392V45.5H357.004V42.448ZM334.38 35.252V38.248H342.808C342.136 43.988 338.972 48.02 332.952 51.128L335.024 53.956C343.62 49.616 346.532 43.008 346.532 35.252H334.38ZM376.658 32.62V46.48H380.382V32.62H376.658ZM366.354 33.684C362.35 33.684 359.326 36.232 359.326 39.76C359.326 43.344 362.35 45.864 366.354 45.864C370.358 45.864 373.354 43.344 373.354 39.76C373.354 36.232 370.358 33.684 366.354 33.684ZM366.354 36.736C368.37 36.736 369.742 37.856 369.742 39.76C369.742 41.692 368.37 42.812 366.354 42.812C364.338 42.812 362.938 41.692 362.938 39.76C362.938 37.856 364.338 36.736 366.354 36.736ZM363.246 47.6V58.1H380.382V47.6H376.714V50.008H366.914V47.6H363.246ZM366.914 52.836H376.714V55.188H366.914V52.836Z" fill="#008BFF"/>
<path d="M288.272 10.488H290.896V12.44H293.008V3.64H290.896V5.784H288.272V4.52H286.208V6.504H283.408V4.536H281.312V11.624H288.272V10.488ZM290.896 7.464V8.808H288.272V7.464H290.896ZM286.208 9.944H283.408V8.12H286.208V9.944ZM288.016 12.712C284.896 12.712 282.976 13.752 282.976 15.544C282.976 17.336 284.896 18.392 288.016 18.392C291.152 18.392 293.072 17.336 293.072 15.544C293.072 13.752 291.152 12.712 288.016 12.712ZM288.016 16.776C286.064 16.776 285.088 16.36 285.088 15.544C285.088 14.728 286.064 14.312 288.016 14.312C289.984 14.312 290.96 14.728 290.96 15.544C290.96 16.36 289.984 16.776 288.016 16.776ZM302.927 12.2V13.64H305.695V14.808H307.807V3.64H305.695V12.2H302.927ZM300.095 9.4C302.223 9.4 303.759 8.344 303.759 6.776C303.759 5.192 302.223 4.136 300.095 4.136C297.935 4.136 296.415 5.192 296.415 6.776C296.415 8.344 297.935 9.4 300.095 9.4ZM300.095 5.672C301.071 5.672 301.759 6.056 301.759 6.776C301.759 7.496 301.071 7.864 300.095 7.864C299.071 7.864 298.415 7.496 298.415 6.776C298.415 6.056 299.071 5.672 300.095 5.672ZM299.311 16.44V14.424H301.343V11.64C302.559 11.56 303.711 11.432 304.863 11.224L304.719 9.72C301.615 10.104 298.031 10.168 295.343 10.168L295.615 11.848C296.719 11.848 297.951 11.832 299.247 11.768V13.736H297.199V18.12H308.127V16.44H299.311ZM321.886 8.12V3.624H319.774V14.664H321.886V9.864H323.646V8.12H321.886ZM317.998 9.96C318.334 8.088 318.334 6.648 318.334 5.624V4.712H310.766V6.392H316.254C316.238 7.288 316.174 8.312 315.934 9.72L317.998 9.96ZM318.974 10.552C317.566 10.744 316.142 10.856 314.67 10.92V8.136H312.606V11C311.646 11.016 310.734 11.016 309.918 11.016L310.11 12.696C312.622 12.696 316.078 12.616 319.102 12.056L318.974 10.552ZM314.174 13.688H312.062V18.12H322.35V16.44H314.174V13.688ZM334.988 3.624V18.408H337.1V3.624H334.988ZM327.788 10.584H332.572V4.888H325.612V6.568H330.412V8.92H325.628V14.984H326.956C329.644 14.984 331.756 14.904 334.188 14.472L333.964 12.76C331.9 13.096 330.028 13.24 327.788 13.24V10.584ZM353.243 9.256H351.099V3.64H348.987V18.376H351.099V11H353.243V9.256ZM344.971 6.792H347.899V5.048H339.803V6.792H342.859V7.608C342.859 10.04 341.659 12.824 339.243 13.928L340.427 15.608C342.107 14.792 343.291 13.208 343.947 11.272C344.603 13.016 345.723 14.488 347.387 15.24L348.555 13.576C346.139 12.472 344.971 9.848 344.971 7.608V6.792Z" fill="#008BFF"/>
</svg>
