<svg width="16" height="16" viewBox="0 0 16 16" fill="none" xmlns="http://www.w3.org/2000/svg">
<path d="M7.33317 12.667C7.33317 13.0352 7.63165 13.3337 7.99984 13.3337C8.36803 13.3337 8.6665 13.0352 8.6665 12.667V8.66699H12.6665C13.0347 8.66699 13.3332 8.36852 13.3332 8.00033C13.3332 7.63214 13.0347 7.33366 12.6665 7.33366H8.6665V3.33366C8.6665 2.96547 8.36803 2.66699 7.99984 2.66699C7.63165 2.66699 7.33317 2.96547 7.33317 3.33366V7.33366H3.33317C2.96498 7.33366 2.6665 7.63214 2.6665 8.00033C2.6665 8.36852 2.96498 8.66699 3.33317 8.66699H7.33317V12.667Z" fill="white"/>
</svg>
