<svg width="18" height="18" viewBox="0 0 18 18" fill="none" xmlns="http://www.w3.org/2000/svg">
<path d="M0 6C0 2.68629 2.68629 0 6 0H12C15.3137 0 18 2.68629 18 6V12C18 15.3137 15.3137 18 12 18H6C2.68629 18 0 15.3137 0 12V6Z" fill="#E5E7EC"/>
<path fill-rule="evenodd" clip-rule="evenodd" d="M13.921 5.72341C14.205 6.0091 14.1907 6.45877 13.8892 6.7278L7.91596 12.0567C7.77072 12.1863 7.57696 12.2557 7.37755 12.2496C7.17814 12.2435 6.98952 12.1624 6.85341 12.0242L4.20163 9.33168C3.91905 9.04476 3.93549 8.59515 4.23835 8.32744C4.54121 8.05974 5.0158 8.07531 5.29837 8.36223L7.43614 10.5328L12.8608 5.69326C13.1624 5.42423 13.637 5.43773 13.921 5.72341Z" fill="white"/>
</svg>
