<svg width="24" height="24" viewBox="0 0 24 24" fill="none" xmlns="http://www.w3.org/2000/svg">
<path d="M0 12C0 5.37258 5.37258 0 12 0C18.6274 0 24 5.37258 24 12C24 18.6274 18.6274 24 12 24C5.37258 24 0 18.6274 0 12Z" fill="white"/>
<path fill-rule="evenodd" clip-rule="evenodd" d="M19.0994 7.1221C19.663 7.72926 19.6277 8.67835 19.0205 9.24195L10.7099 16.9562C10.1069 17.516 9.16564 17.4855 8.60007 16.888L4.91063 12.9903C4.34114 12.3886 4.36721 11.4392 4.96885 10.8698C5.57049 10.3003 6.51988 10.3263 7.08937 10.928L9.75766 13.7469L16.9795 7.04322C17.5867 6.47962 18.5358 6.51493 19.0994 7.1221Z" fill="#424958"/>
</svg>
