<svg width="20" height="20" viewBox="0 0 20 20" fill="none" xmlns="http://www.w3.org/2000/svg">
<path d="M0 6.66667C0 2.98477 2.98477 0 6.66667 0H13.3333C17.0152 0 20 2.98477 20 6.66667V13.3333C20 17.0152 17.0152 20 13.3333 20H6.66667C2.98477 20 0 17.0152 0 13.3333V6.66667Z" fill="white"/>
<path fill-rule="evenodd" clip-rule="evenodd" d="M15.4677 6.35957C15.7832 6.67699 15.7674 7.17663 15.4323 7.47555L8.7954 13.3966C8.63402 13.5406 8.41873 13.6177 8.19717 13.6109C7.97561 13.6041 7.76603 13.514 7.6148 13.3604L4.66837 10.3687C4.35439 10.0499 4.37266 9.55038 4.70917 9.25293C5.04568 8.95548 5.573 8.97279 5.88697 9.29158L8.26227 11.7034L14.2897 6.32606C14.6248 6.02714 15.1522 6.04214 15.4677 6.35957Z" fill="#008BFF"/>
</svg>
