<svg width="20" height="20" viewBox="0 0 20 20" fill="none" xmlns="http://www.w3.org/2000/svg">
<path fill-rule="evenodd" clip-rule="evenodd" d="M8.72656 3.68939C8.72656 3.30865 9.01147 3 9.36293 3H10.6357C10.9871 3 11.272 3.30865 11.272 3.68939V10.3188H12.9542C13.509 10.3188 13.7981 10.9794 13.4216 11.3869L10.4669 14.5855C10.215 14.8582 9.784 14.8582 9.53205 14.5855L6.57737 11.3869C6.20087 10.9794 6.48995 10.3188 7.04481 10.3188H8.72656V3.68939ZM3.63636 15.7266C3.28491 15.7266 3 16.0115 3 16.3629C3 16.7144 3.28491 16.9993 3.63636 16.9993H16.3636C16.7151 16.9993 17 16.7144 17 16.3629C17 16.0115 16.7151 15.7266 16.3636 15.7266H3.63636Z" fill="#008BFF"/>
</svg>
