<svg width="54" height="54" viewBox="0 0 54 54" fill="none" xmlns="http://www.w3.org/2000/svg">
<circle cx="27" cy="27" r="27" fill="#FFEED5"/>
<circle cx="26.9992" cy="27.0002" r="17.55" fill="#FFC62B"/>
<path fill-rule="evenodd" clip-rule="evenodd" d="M26.5 16C27.3284 16 28 16.6716 28 17.5V28.5C28 29.3284 27.3284 30 26.5 30C25.6716 30 25 29.3284 25 28.5V17.5C25 16.6716 25.6716 16 26.5 16Z" fill="white"/>
<path fill-rule="evenodd" clip-rule="evenodd" d="M26.5 32.5C27.3284 32.5 28 33.1716 28 34V35C28 35.8284 27.3284 36.5 26.5 36.5C25.6716 36.5 25 35.8284 25 35V34C25 33.1716 25.6716 32.5 26.5 32.5Z" fill="white"/>
</svg>
