<svg width="16" height="16" viewBox="0 0 16 16" fill="none" xmlns="http://www.w3.org/2000/svg">
<path fill-rule="evenodd" clip-rule="evenodd" d="M8.64399 1.26245C8.26179 0.912517 7.6756 0.912517 7.2934 1.26245L2.02692 6.08436C1.43495 6.62636 1.70113 7.55954 2.3949 7.77611V13.9997C2.3949 14.5519 2.84262 14.9997 3.3949 14.9997H12.5362C13.0885 14.9997 13.5362 14.5519 13.5362 13.9997V7.77804C14.2346 7.56517 14.5042 6.62799 13.9105 6.08436L8.64399 1.26245ZM7.2699 10.0328C7.2699 9.75669 7.49376 9.53283 7.7699 9.53283H8.25322C8.52937 9.53283 8.75322 9.75669 8.75322 10.0328V13.1344C8.75322 13.4105 8.52937 13.6344 8.25322 13.6344H7.7699C7.49376 13.6344 7.2699 13.4105 7.2699 13.1344V10.0328Z" fill="white"/>
</svg>
