<svg width="16" height="16" viewBox="0 0 16 16" fill="none" xmlns="http://www.w3.org/2000/svg">
<path fill-rule="evenodd" clip-rule="evenodd" d="M8.64301 1.26245C8.26081 0.912517 7.67462 0.912517 7.29243 1.26245L2.02594 6.08436C1.43375 6.62656 1.70035 7.56024 2.39471 7.77635V13.9997C2.39471 14.5519 2.84242 14.9997 3.39471 14.9997H12.536C13.0883 14.9997 13.536 14.5519 13.536 13.9997V7.7778C14.2339 7.56447 14.503 6.62779 13.9095 6.08436L8.64301 1.26245ZM7.27068 10.0328C7.27068 9.75669 7.49454 9.53283 7.77068 9.53283H8.254C8.53015 9.53283 8.754 9.75669 8.754 10.0328V13.1344C8.754 13.4105 8.53015 13.6344 8.254 13.6344H7.77068C7.49454 13.6344 7.27068 13.4105 7.27068 13.1344V10.0328Z" fill="#424958"/>
</svg>
