<svg width="16" height="16" viewBox="0 0 16 16" fill="none" xmlns="http://www.w3.org/2000/svg">
<path fill-rule="evenodd" clip-rule="evenodd" d="M3 2.25C2.44772 2.25 2 2.69772 2 3.25V15.75H5.7815C5.76094 15.6701 5.75 15.5863 5.75 15.5V13.75C5.75 13.1977 6.19772 12.75 6.75 12.75H9.25C9.80228 12.75 10.25 13.1977 10.25 13.75V15.5C10.25 15.5863 10.2391 15.6701 10.2185 15.75H14V3.25C14 2.69772 13.5523 2.25 13 2.25H3Z" fill="#424958"/>
<rect x="5" width="6" height="6.75" rx="1" fill="#424958"/>
<path fill-rule="evenodd" clip-rule="evenodd" d="M8.5 1.875V4.875H7.5V1.875H8.5Z" fill="white"/>
<path fill-rule="evenodd" clip-rule="evenodd" d="M9.5 3.87329L6.5 3.87329L6.5 2.87329L9.5 2.87329L9.5 3.87329Z" fill="white"/>
<rect x="4.25" y="6.75" width="1.5" height="1.5" rx="0.5" fill="white"/>
<rect x="4.25" y="9" width="1.5" height="1.5" rx="0.5" fill="white"/>
<rect x="7.25" y="6.75" width="1.5" height="1.5" rx="0.5" fill="white"/>
<rect x="7.25" y="9" width="1.5" height="1.5" rx="0.5" fill="white"/>
<rect x="10.25" y="6.75" width="1.5" height="1.5" rx="0.5" fill="white"/>
<rect x="10.25" y="9" width="1.5" height="1.5" rx="0.5" fill="white"/>
</svg>
