<svg width="20" height="20" viewBox="0 0 20 20" fill="none" xmlns="http://www.w3.org/2000/svg">
<mask id="path-1-inside-1_784_15298" fill="white">
<path fill-rule="evenodd" clip-rule="evenodd" d="M10 10C12.7614 10 15 7.76142 15 5C15 2.23858 12.7614 0 10 0C7.23858 0 5 2.23858 5 5C5 7.76142 7.23858 10 10 10ZM7 11C4.23858 11 2 13.2386 2 16V19C2 19.5523 2.44772 20 3 20H17C17.5523 20 18 19.5523 18 19V16C18 13.2386 15.7614 11 13 11H7Z"/>
</mask>
<path fill-rule="evenodd" clip-rule="evenodd" d="M10 10C12.7614 10 15 7.76142 15 5C15 2.23858 12.7614 0 10 0C7.23858 0 5 2.23858 5 5C5 7.76142 7.23858 10 10 10ZM7 11C4.23858 11 2 13.2386 2 16V19C2 19.5523 2.44772 20 3 20H17C17.5523 20 18 19.5523 18 19V16C18 13.2386 15.7614 11 13 11H7Z" fill="white"/>
<path d="M13.5 5C13.5 6.933 11.933 8.5 10 8.5V11.5C13.5899 11.5 16.5 8.58985 16.5 5H13.5ZM10 1.5C11.933 1.5 13.5 3.067 13.5 5H16.5C16.5 1.41015 13.5899 -1.5 10 -1.5V1.5ZM6.5 5C6.5 3.067 8.067 1.5 10 1.5V-1.5C6.41015 -1.5 3.5 1.41015 3.5 5H6.5ZM10 8.5C8.067 8.5 6.5 6.933 6.5 5H3.5C3.5 8.58985 6.41015 11.5 10 11.5V8.5ZM3.5 16C3.5 14.067 5.067 12.5 7 12.5V9.5C3.41015 9.5 0.5 12.4101 0.5 16H3.5ZM3.5 19V16H0.5V19H3.5ZM3 18.5C3.27614 18.5 3.5 18.7239 3.5 19H0.5C0.5 20.3807 1.61929 21.5 3 21.5V18.5ZM17 18.5H3V21.5H17V18.5ZM16.5 19C16.5 18.7239 16.7239 18.5 17 18.5V21.5C18.3807 21.5 19.5 20.3807 19.5 19H16.5ZM16.5 16V19H19.5V16H16.5ZM13 12.5C14.933 12.5 16.5 14.067 16.5 16H19.5C19.5 12.4101 16.5899 9.5 13 9.5V12.5ZM7 12.5H13V9.5H7V12.5Z" fill="#ACB2C0" mask="url(#path-1-inside-1_784_15298)"/>
</svg>
