<svg width="20" height="20" viewBox="0 0 20 20" fill="none" xmlns="http://www.w3.org/2000/svg">
<rect x="2.75" y="7.75" width="14.5" height="11.5" rx="3.25" stroke="#ACB2C0" stroke-width="1.5"/>
<path fill-rule="evenodd" clip-rule="evenodd" d="M12.5 7V4C12.5 2.61929 11.3807 1.5 10 1.5C8.61929 1.5 7.5 2.61929 7.5 4V7H6V4C6 1.79086 7.79086 0 10 0C12.2091 0 14 1.79086 14 4V7H12.5Z" fill="#ACB2C0"/>
<path d="M11 12.5081C11.0015 12.3323 10.9567 12.1593 10.8699 12.0064C10.7831 11.8534 10.6575 11.7261 10.5058 11.6372C10.354 11.5483 10.1815 11.501 10.0056 11.5C9.82965 11.499 9.6566 11.5444 9.50387 11.6316C9.35113 11.7189 9.22412 11.8448 9.13566 11.9967C9.04719 12.1487 9.0004 12.3212 9 12.497C8.99961 12.6728 9.04563 12.8456 9.13341 12.9979C9.22119 13.1502 9.34762 13.2767 9.49996 13.3646V15.5C9.49996 15.7761 9.72382 16 9.99996 16C10.2761 16 10.5 15.7761 10.5 15.5V13.3646C10.6511 13.2781 10.7768 13.1534 10.8645 13.0031C10.9523 12.8528 10.999 12.6821 11 12.5081Z" fill="#ACB2C0" stroke="#ACB2C0" stroke-width="0.5"/>
</svg>
