<svg width="16" height="16" viewBox="0 0 16 16" fill="none" xmlns="http://www.w3.org/2000/svg">
<path fill-rule="evenodd" clip-rule="evenodd" d="M7.11111 0C3.18375 0 0 3.18375 0 7.11111C0 11.0385 3.18375 14.2222 7.11111 14.2222C8.75441 14.2222 10.2675 13.6648 11.4717 12.7288L14.4826 15.7397C14.8297 16.0868 15.3925 16.0868 15.7397 15.7397C16.0868 15.3925 16.0868 14.8297 15.7397 14.4826L12.7288 11.4717C13.6648 10.2675 14.2222 8.75441 14.2222 7.11111C14.2222 3.18375 11.0385 0 7.11111 0ZM1.77778 7.11111C1.77778 4.16559 4.16559 1.77778 7.11111 1.77778C10.0566 1.77778 12.4444 4.16559 12.4444 7.11111C12.4444 10.0566 10.0566 12.4444 7.11111 12.4444C4.16559 12.4444 1.77778 10.0566 1.77778 7.11111Z" fill="#111723"/>
</svg>
