<svg width="64" height="51" viewBox="0 0 64 51" fill="none" xmlns="http://www.w3.org/2000/svg">
<rect width="48.4427" height="10.9619" rx="2" fill="#E5E7EC"/>
<rect y="14.6157" width="48.4427" height="10.9619" rx="2" fill="#E5E7EC"/>
<rect y="29.2314" width="48.4427" height="10.9619" rx="2" fill="#E5E7EC"/>
<path fill-rule="evenodd" clip-rule="evenodd" d="M48 19C46.5272 19 45.3333 20.1939 45.3333 21.6667V32.3333H34.6667C33.1939 32.3333 32 33.5272 32 35C32 36.4728 33.1939 37.6667 34.6667 37.6667H45.3333V48.3333C45.3333 49.8061 46.5272 51 48 51C49.4728 51 50.6667 49.8061 50.6667 48.3333V37.6667H61.3333C62.8061 37.6667 64 36.4728 64 35C64 33.5272 62.8061 32.3333 61.3333 32.3333H50.6667V21.6667C50.6667 20.1939 49.4728 19 48 19Z" fill="#CBCFD7"/>
</svg>
