<svg width="16" height="16" viewBox="0 0 16 16" fill="none" xmlns="http://www.w3.org/2000/svg">
<path fill-rule="evenodd" clip-rule="evenodd" d="M5.86279 2.33301C5.86279 1.78072 6.3105 1.33301 6.86279 1.33301H8.86279C9.41507 1.33301 9.86279 1.78072 9.86279 2.33301V3.05402C10.3258 3.24145 10.7565 3.49201 11.1442 3.79504L11.7709 3.43327C12.2491 3.15713 12.8607 3.321 13.1369 3.79929L14.1369 5.53134C14.413 6.00964 14.2491 6.62123 13.7709 6.89737L13.1451 7.25867C13.1787 7.50085 13.1961 7.74823 13.1961 7.99967C13.1961 8.251 13.1787 8.49827 13.1451 8.74034L13.7702 9.10124C14.2485 9.37738 14.4124 9.98897 14.1362 10.4673L13.1362 12.1993C12.8601 12.6776 12.2485 12.8415 11.7702 12.5653L11.1445 12.2041C10.7567 12.5072 10.3259 12.7579 9.86279 12.9453V13.6663C9.86279 14.2186 9.41507 14.6663 8.86279 14.6663H6.86279C6.3105 14.6663 5.86279 14.2186 5.86279 13.6663V12.9453C5.39936 12.7577 4.96831 12.5069 4.58032 12.2035L3.9559 12.564C3.4776 12.8402 2.86601 12.6763 2.58987 12.198L1.58987 10.466C1.31373 9.98767 1.4776 9.37608 1.9559 9.09993L2.58034 8.73941C2.54679 8.49764 2.52945 8.25068 2.52945 7.99967C2.52945 7.74855 2.54681 7.50148 2.58039 7.2596L1.95524 6.89867C1.47695 6.62253 1.31308 6.01094 1.58922 5.53265L2.58922 3.8006C2.86536 3.3223 3.47695 3.15843 3.95525 3.43457L4.58059 3.79561C4.9685 3.49233 5.39947 3.24157 5.86279 3.05402V2.33301ZM7.86233 9.99967C8.9669 9.99967 9.86233 9.10424 9.86233 7.99967C9.86233 6.8951 8.9669 5.99967 7.86233 5.99967C6.75776 5.99967 5.86233 6.8951 5.86233 7.99967C5.86233 9.10424 6.75776 9.99967 7.86233 9.99967Z" fill="#828896"/>
</svg>
