<svg width="16" height="16" viewBox="0 0 16 16" fill="none" xmlns="http://www.w3.org/2000/svg">
<path fill-rule="evenodd" clip-rule="evenodd" d="M5.17613 1C5.17613 0.447715 5.62385 0 6.17613 0H8.82091C9.37319 0 9.82091 0.447715 9.82091 1V1.99731C10.3586 2.21496 10.8587 2.50589 11.3089 2.8577L12.1763 2.35719C12.6547 2.08117 13.2665 2.24509 13.5427 2.72331L14.8646 5.01151C15.1409 5.48973 14.9771 6.10115 14.4987 6.37716L13.6311 6.87775C13.6701 7.15827 13.6902 7.4448 13.6902 7.73603C13.6902 8.02763 13.67 8.31451 13.631 8.59537L14.4985 9.09594C14.9769 9.37195 15.1407 9.98338 14.8645 10.4616L13.5426 12.7498C13.2663 13.228 12.6545 13.3919 12.1762 13.1159L11.308 12.615C10.8581 12.9665 10.3582 13.2572 9.82091 13.4748V14.4729C9.82091 15.0252 9.37319 15.4729 8.82091 15.4729H6.17613C5.62385 15.4729 5.17613 15.0252 5.17613 14.4729V13.4759C4.63801 13.2583 4.13745 12.9674 3.68688 12.6155L2.82273 13.1141C2.34436 13.3901 1.7326 13.2262 1.45633 12.748L0.134414 10.4598C-0.141858 9.98154 0.0219722 9.37012 0.50034 9.09411L1.36346 8.5961C1.32436 8.31501 1.30414 8.02788 1.30414 7.73603C1.30414 7.44455 1.32431 7.15777 1.36331 6.87702L0.500167 6.379C0.0217994 6.10298 -0.142031 5.49156 0.134241 5.01334L1.45616 2.72514C1.73243 2.24693 2.34419 2.08301 2.82255 2.35902L3.68605 2.85725C4.13683 2.50505 4.63768 2.2139 5.17613 1.99622V1ZM7.49852 10.0559C8.78114 10.0559 9.82091 9.01681 9.82091 7.735C9.82091 6.45318 8.78114 5.41406 7.49852 5.41406C6.2159 5.41406 5.17613 6.45318 5.17613 7.735C5.17613 9.01681 6.2159 10.0559 7.49852 10.0559Z" fill="#424958"/>
</svg>
