<svg width="24" height="24" viewBox="0 0 24 24" fill="none" xmlns="http://www.w3.org/2000/svg">
<circle cx="12" cy="12" r="12" fill="#CBCFD7"/>
<path fill-rule="evenodd" clip-rule="evenodd" d="M4.5 21.3681V20.75C4.5 17.1601 7.41015 14.25 11 14.25H13C16.5899 14.25 19.5 17.1601 19.5 20.75V21.3681C17.4456 23.0149 14.8378 24 12 24C9.16216 24 6.5544 23.0149 4.5 21.3681ZM15.75 9.75C15.75 11.8211 14.0711 13.5 12 13.5C9.92893 13.5 8.25 11.8211 8.25 9.75C8.25 7.67893 9.92893 6 12 6C14.0711 6 15.75 7.67893 15.75 9.75Z" fill="white"/>
</svg>
